Coordinates
version=1
nRows=26
nColumns=22
inDegrees=yes

Units are S.I. units (second, meters, Newtons, ...)
If the header above contains a line with 'inDegrees', this indicates whether rotational values are in degrees (yes) or radians (no).

endheader
time	pelvis_tilt	pelvis_list	pelvis_rotation	pelvis_tx	pelvis_ty	pelvis_tz	hip_flexion_r	hip_adduction_r	hip_rotation_r	knee_angle_r	ankle_angle_r	subtalar_angle_r	hip_flexion_l	hip_adduction_l	hip_rotation_l	knee_angle_l	ankle_angle_l	subtalar_angle_l	lumbar_extension	lumbar_bending	lumbar_rotation
      0.01000000	     -4.41331379	     -7.39396025	      9.88459380	      0.37617618	      0.92100427	      0.96709177	     -7.45643460	      3.47106514	     -6.47772717	    -25.53570791	     16.01458750	     14.25954873	     38.07473203	     -8.26145971	    -12.47062620	    -28.49140195	      4.49438964	     -6.32476959	     -0.45143480	      2.78601403	     -1.11944381
      0.02000000	     -4.45212099	     -7.28755408	     10.32934937	      0.38285231	      0.92129273	      0.96264815	     -7.22211861	      3.15820645	     -6.51153360	    -26.55194840	     14.99359870	     14.98946029	     38.06937492	     -7.81049717	    -12.08684286	    -29.09936581	      4.37842657	     -6.20441748	     -0.30395909	      2.55917315	     -1.30650508
      0.03000000	     -4.46781095	     -7.18166101	     10.84716276	      0.39064108	      0.92174439	      0.95741883	     -6.89951614	      2.81372263	     -6.54901747	    -27.83864835	     13.68375667	     15.60803050	     37.97071387	     -7.30184978	    -11.67539416	    -29.71096848	      4.21142630	     -6.18045584	     -0.16132187	      2.32165477	     -1.50728250
      0.04000000	     -4.47615031	     -7.12543316	     11.36092889	      0.39922977	      0.92231210	      0.95168708	     -6.43564621	      2.48263400	     -6.50522700	    -29.39734657	     12.13750719	     16.57420782	     37.81298933	     -6.84638884	    -11.34517512	    -30.32804371	      4.14434314	     -6.28271583	     -0.00024466	      2.13162619	     -1.64763235
      0.05000000	     -4.47114875	     -7.08314547	     11.90564181	      0.40826341	      0.92302220	      0.94554826	     -5.82256934	      2.14192321	     -6.46796752	    -31.22007685	     10.36318929	     17.31165017	     37.55448886	     -6.37059641	    -11.02549116	    -30.85413212	      4.09697958	     -6.50259937	      0.15868317	      1.95797071	     -1.78996029
      0.06000000	     -4.45650269	     -7.05971049	     12.46659656	      0.41746514	      0.92383978	      0.93916445	     -5.04017860	      1.79519828	     -6.45738362	    -33.30092708	      8.41767430	     17.80856310	     37.21585501	     -5.89051317	    -10.72011218	    -31.29041811	      4.12306891	     -6.74951558	      0.31382161	      1.80870405	     -1.91529489
      0.07000000	     -4.42691044	     -7.08500531	     13.00798427	      0.42667378	      0.92473468	      0.93268762	     -4.09945662	      1.48945321	     -6.38218542	    -35.59183931	      6.35730109	     18.34714569	     36.81082616	     -5.46014591	    -10.44251488	    -31.64673634	      4.29031130	     -7.26612776	      0.46552799	      1.72358926	     -2.02536044
      0.08000000	     -4.38159239	     -7.08175293	     13.56932578	      0.43573195	      0.92570238	      0.92611166	     -3.01716453	      1.13523054	     -6.37085561	    -38.08688516	      4.23708950	     18.54587478	     36.32583048	     -4.97966935	    -10.15928865	    -31.91112961	      4.54982801	     -7.59696137	      0.59011457	      1.61888132	     -2.14399748
      0.09000000	     -4.32367246	     -7.10367812	     14.12750372	      0.44458992	      0.92668317	      0.91954711	     -1.80167344	      0.80780291	     -6.34340241	    -40.72392948	      2.09166832	     18.48753834	     35.79940536	     -4.51904564	     -9.86002119	    -32.11572090	      4.95533753	     -8.14645394	      0.70362543	      1.55395027	     -2.26261821
      0.10000000	     -4.21495953	     -7.09494304	     14.70527031	      0.45321788	      0.92775917	      0.91298853	     -0.53583783	      0.46900373	     -6.31674508	    -43.43486015	     -0.08154145	     18.05788545	     35.18057183	     -4.02632819	     -9.52649901	    -32.25780168	      5.38026590	     -8.63808372	      0.74719258	      1.47514157	     -2.38450989
      0.11000000	     -4.09253381	     -7.04929867	     15.30035926	      0.46162207	      0.92884246	      0.90643325	      0.80002223	      0.09653836	     -6.30352117	    -46.18779006	     -2.18100410	     17.40310147	     34.50640592	     -3.49593320	     -9.18515129	    -32.34251556	      5.90700088	     -8.96926237	      0.76328765	      1.36986313	     -2.52925375
      0.12000000	     -3.93876865	     -6.96842199	     15.91924853	      0.46982712	      0.92996178	      0.89988609	      2.15784877	     -0.29188652	     -6.29011594	    -48.91580521	     -4.17553997	     16.50566763	     33.75889200	     -2.93595304	     -8.82605905	    -32.36927440	      6.47873685	     -9.21129341	      0.73362507	      1.24373653	     -2.69378515
      0.13000000	     -3.76654021	     -6.85753241	     16.55345337	      0.47784859	      0.93109849	      0.89335526	      3.53506364	     -0.69058683	     -6.26117431	    -51.57797768	     -5.98631999	     15.43870967	     32.95284830	     -2.35973355	     -8.46962177	    -32.34082516	      7.07453461	     -9.37252648	      0.67438823	      1.10057854	     -2.87215310
      0.14000000	     -3.57797721	     -6.72142628	     17.20270259	      0.48570612	      0.93225493	      0.88682849	      4.91720927	     -1.09467610	     -6.21410254	    -54.13720576	     -7.52106496	     14.26856965	     32.08663723	     -1.77409321	     -8.11851834	    -32.24943089	      7.67457934	     -9.46891952	      0.59034300	      0.94584161	     -3.06302947
      0.15000000	     -3.37930727	     -6.56992424	     17.86216140	      0.49341856	      0.93344167	      0.88029733	      6.29900873	     -1.49318030	     -6.13534450	    -56.56172974	     -8.69118864	     13.06215144	     31.15880615	     -1.18668587	     -7.76551560	    -32.07796650	      8.26787332	     -9.51817811	      0.49360472	      0.79037847	     -3.26680020
      0.16000000	     -3.16905333	     -6.41119993	     18.54031327	      0.50096433	      0.93465671	      0.87374334	      7.67483496	     -1.88792584	     -6.04359325	    -58.83342232	     -9.45589483	     11.89772926	     30.18312858	     -0.60631318	     -7.41371574	    -31.84235081	      8.81258610	     -9.53413922	      0.38142296	      0.64457045	     -3.46268410
      0.17000000	     -2.96190207	     -6.24498620	     19.23139761	      0.50836364	      0.93590633	      0.86714817	      9.04749056	     -2.27619872	     -5.91445491	    -60.93025617	     -9.78323094	     10.81503264	     29.15869095	     -0.02736626	     -7.06876706	    -31.51928200	      9.33177054	     -9.53454402	      0.27274976	      0.50721008	     -3.68231121
      0.18000000	     -2.74530121	     -6.08931395	     19.95695614	      0.51560778	      0.93720989	      0.86048927	     10.39853914	     -2.64207134	     -5.77632979	    -62.82422725	     -9.77093077	      9.84304915	     28.08597505	      0.54266484	     -6.68025558	    -31.11612610	      9.79632425	     -9.52963055	      0.15998037	      0.39813510	     -3.92531749
      0.19000000	     -2.52658842	     -5.94126538	     20.72211858	      0.52269425	      0.93854974	      0.85375475	     11.72322868	     -2.98873512	     -5.62785427	    -64.50091043	     -9.46157482	      9.00106201	     26.97448390	      1.11012802	     -6.24628722	    -30.63947663	     10.22361966	     -9.53227210	      0.05006160	      0.31248914	     -4.19895529
      0.20000000	     -2.30182017	     -5.80940625	     21.53436821	      0.52962499	      0.93993082	      0.84693864	     13.00857912	     -3.30367855	     -5.47560839	    -65.93889050	     -8.96421563	      8.25869915	     25.82445897	      1.66860540	     -5.74117825	    -30.08951846	     10.60163956	     -9.54918784	     -0.05768711	      0.26000490	     -4.50841545
      0.21000000	     -2.06865465	     -5.69459382	     22.40346293	      0.53639404	      0.94134629	      0.84003703	     14.24362204	     -3.58314733	     -5.32786678	    -67.12603036	     -8.37035426	      7.59763929	     24.64059896	      2.21958398	     -5.14284668	    -29.47886750	     10.93308337	     -9.58642726	     -0.16723804	      0.24078558	     -4.85148701
      0.22000000	     -1.82459112	     -5.60319162	     23.33413515	      0.54300899	      0.94278690	      0.83305728	     15.41884638	     -3.81877523	     -5.19322386	    -68.05364639	     -7.72998276	      6.99624875	     23.42643392	      2.75406593	     -4.43331523	    -28.81448713	     11.21244718	     -9.64711540	     -0.27738560	      0.26035161	     -5.22558648
      0.23000000	     -1.57101409	     -5.53459440	     24.32531752	      0.54946790	      0.94422763	      0.82600749	     16.52967892	     -4.00723565	     -5.06725381	    -68.72110763	     -7.04887123	      6.44463831	     22.19226178	      3.26517177	     -3.61963685	    -28.11319664	     11.45676971	     -9.73430075	     -0.38759271	      0.31740292	     -5.63536293
      0.24000000	     -1.32238919	     -5.49178135	     25.37701572	      0.55577103	      0.94564923	      0.81889549	     17.58907234	     -4.15527772	     -4.95264226	    -69.13020777	     -6.33922093	      6.04016990	     20.95235537	      3.75221094	     -2.69371949	    -27.37337783	     11.64728726	     -9.80251717	     -0.48056298	      0.40596437	     -6.07547211
      0.25000000	     -1.03930736	     -5.45317494	     26.45750146	      0.56199806	      0.94707842	      0.81174247	     18.53858636	     -4.26079385	     -4.83842136	    -69.27746086	     -5.56070811	      5.46047843	     19.65529780	      4.19080199	     -1.72733574	    -26.59817460	     11.84658996	     -9.97463756	     -0.60040468	      0.52161217	     -6.51226055
      0.26000000	     -0.77460876	     -5.43487152	     27.57824613	      0.56805319	      0.94843600	      0.80456022	     19.45485717	     -4.33558708	     -4.71691253	    -69.18898806	     -4.73982003	      5.03851610	     18.37643137	      4.60103170	     -0.65834589	    -25.80705842	     11.98542558	    -10.09351332	     -0.69461222	      0.65487974	     -6.94793656
